<?xml version="1.0" encoding="utf-8"?>
<!-- Generator: Adobe Illustrator 28.0.0, SVG Export Plug-In . SVG Version: 6.00 Build 0)  -->
<svg version="1.1" id="Ebene_1" xmlns="http://www.w3.org/2000/svg" xmlns:xlink="http://www.w3.org/1999/xlink" x="0px" y="0px"
	 viewBox="0 0 1080 1080" style="enable-background:new 0 0 1080 1080;" xml:space="preserve">
<style type="text/css">
	.st0{fill:#E30614;}
	.st1{fill:#FFFFFF;}
	.st2{fill:#FFED00;}
	.st3{fill:#1C1D1B;}
</style>
<g>
	<path class="st0" d="M881.7,594.8c-5.3,37.6-40,63.9-77.6,58.7c-37.6-5.3-63.9-40-58.7-77.6c5.3-37.6,40-63.9,77.6-58.7
		C860.6,522.5,886.9,557.2,881.7,594.8 M341.4,519.5c-5.3,37.6-40,63.9-77.6,58.7c-37.6-5.3-63.9-40-58.7-77.6s40-63.9,77.6-58.7
		C320.5,447.2,346.7,482,341.4,519.5"/>
	<path class="st0" d="M813.6,585.3C792.8,734.6,655,838.6,505.9,817.8C356.6,797,252.6,659.2,273.4,510.1
		C294.2,360.8,432,256.8,581.1,277.6C730.3,298.4,834.4,436.1,813.6,585.3"/>
	<path class="st1" d="M339.4,355c4.9-0.2,126.4,45.6,126.4,45.6l89.2,15.7l54.1,15.4l45.7-19.7l48.2,13.7l31.1,20.1l53.3-1.6l20.5-7
		l-44.5-74.3l-59.4-75.3l-70.3-28.1l-10.9-35.1l17.1-60L629,119.6l-20.5,29.7l1.3,32l-26,35.1l-2.2,41.8l-59.8,10.2l-60.9,5.9
		l-40.2,20.5l-33.2,15.4l-18.3,22L339.4,355L339.4,355z"/>
	<path class="st2" d="M498.7,297.6l-26.3,34.1l-1,3.8l5.5,39.1l9.9-1.4l-5.2-37.1l24.9-32.5L498.7,297.6z M609.8,339.2l8.2,5.7
		l22.9-32.9l-8.3-5.8L609.8,339.2z M714.5,385.8l8.1-16.9l-3.2-6.9l-35.2-10l-2.8,9.6l29.5,8.4l-7.5,15.8l2.1,6.6l44.8,24.7l4.8-8.8
		L714.5,385.8z M584.9,399.6L551.3,370l-6.7,7.5l36,31.6l5.2,0.8l31.7-13.4l-3.9-9.2L584.9,399.6z"/>
	<path class="st3" d="M393.9,531.6c-1.7-0.2-3.1-1.1-4.1-2.5c-1.9-2.5-4.5-6.1,13.9-24.8l0.4-0.4c1.2-1,30.1-23.8,65.1-18.9
		c0.7,0.1,1.6,0.2,2.4,0.4c28.4,5,39.2,27.5,39.7,28.5c1.3,2.7,7.5,16.7,4,25c-1.1,2.8-3.1,4.8-5.8,5.8c-2.4,0.9-4.8,1.2-7.3,0.8
		c-8.3-1.1-13.5-8.8-14.1-9.7l-1-1.5l0.1-1.2c-0.6-2.7-5.2-19.7-21.9-23.6c-2-0.4-4-0.9-5.8-1.1c-27.5-3.8-46.3,13.2-46.6,13.4
		C399.3,532.4,395.3,531.8,393.9,531.6 M578.1,635c-22.2-3.1-25-51.1-25.2-56.6c-0.7-16.8-0.7-46.2,7.8-54c1.8-1.7,4-2.4,6.2-2.1
		c1.4,0.2,2.6,0.7,3.7,1.6c3.3,2.7,3.2,7,2.9,15.6c-0.3,7.9-0.5,19.9,1.7,34.1c2.9,18.1,7.6,31.1,10.6,39.8c3.3,9.1,5,14.1,2.3,18.2
		c-0.9,1.4-2.8,3.3-6.5,3.5C580.4,635.2,579.2,635.1,578.1,635 M701,593.3c-7.1-1-13-8.3-14.1-9.8l-1-1.3l0-1.6
		c-0.1-0.8-1-20.9-22.3-31c-2.8-1.3-5.8-2.1-9.1-2.6c-18.9-2.6-40.5,9.1-44,11.1c-4,3.9-11.1,9.9-17,9c-1.8-0.2-3.4-1-4.6-2.4
		c-0.8-0.8-3.1-3.9-0.8-8.5c1.9-3.6,14.4-15.2,21.1-18.5l-0.1-0.2c17.7-9.8,33.4-13.1,50.7-10.6c6.2,0.9,12.7,2.4,20.5,4.9
		c15.3,5,32,24.6,33.7,33.5l0.1,0c0.7,3.2,3.7,19.3-4.9,25.8C706.7,593,703.9,593.7,701,593.3 M552.3,717.9
		c-41.3-5.8-84.1-36-120.7-85.1l-24.4-3.2l21.8-14c0.1-0.2,0.2-0.3,0.3-0.5l1.8-2.6l2.3,0.3l2.3-1.4l1.9,3.4
		c0.3,0.3,0.5,0.6,0.6,0.8l3.2,4.4l-0.3,0.2c10,14,48,60.7,113.6,69.8c4.8,0.7,9.9,1.1,14.7,1.4c71.6,3.3,94.6-27.5,98-32.8
		c0.2-0.5,0.6-1.3,1.3-2.1l0.2-0.5l0.2,0c0.9-0.9,2.3-1.7,4.2-1.3l2.7,0.4l0.1,0.2l8.8-1l-2.9,7.7c-0.9,2.3-21.7,55.7-113.1,57.1
		C563.4,719,557.9,718.6,552.3,717.9"/>
</g>
</svg>
