<svg xmlns="http://www.w3.org/2000/svg" xml:space="preserve" style="enable-background:new 0 0 1080 1080" viewBox="0 0 1080 1080">
	<path d="M0 0h1080v1080H0z"/>
	<circle cx="539.2" cy="539.2" r="403" style="fill:#fff"/>
	<path d="M562 922.6c-6-.6-11.6-1.4-12.5-1.9-1.7-1-.8-2.5 33.3-61.2 8.1-14 26.5-45.7 40.6-70.3 14.2-24.7 30.3-52.3 35.8-61.5s11.5-19.8 13.4-23.2c1.9-3.5 8.4-14.6 14.4-24.8l10.8-18.4-1.9-3.7c-1.1-2-3.7-6.3-6-9.5-24.4-34.2-57.2-50.8-109.8-55.1-20.2-1.7-40.9-1.6-78.1.5-63.8 3.6-74.9 4.1-99.5 4.1-62.7 0-106.7-8.3-148.6-28.1-30-14.2-55.8-33.8-80.2-60.7l-7.3-8.1.7-8.1c1.1-11.4 7.1-40.1 11.7-56.3 17.5-60 46.6-110.5 89.3-155.5 11.3-11.9 34.8-32.9 44.4-39.7l4-2.8 11.4 11.6c36.4 37.2 80.6 53.8 143.8 53.8 31 0 58.4-3 133-14.5 59.4-9.2 87.5-11.7 117.9-10.7 40.9 1.4 68.6 9.2 95.9 26.9 12.1 7.9 32.6 28.7 42 43 8.6 12.8 18.3 32.3 24.7 49.7l4.2 11.3-6.8 12c-3.7 6.6-14 24.4-22.9 39.9-8.9 15.3-16.9 29.5-18 31.4-4.2 7.4-29 50-44.5 76.7-9 15.3-18 30.8-20 34.2-7.2 12.5-49.1 84.3-77 131.9-10.4 17.7-47.8 82-51.7 88.8-1.7 2.9-9.9 17.2-18.4 32s-17.6 30.6-20.4 35.4c-12.1 21.3-15.6 27.4-16.6 28.6-.6.7-4.2 1.7-7.9 2-3.7.4-8 .8-9.6 1.1-1.4 0-7.5-.2-13.6-.8z" style="fill:red"/>
	<path d="M433.8 905.1c-10.7-1.3-19.5-2.9-19.5-3.5 0-.6 18.9-38 41.9-83 23.1-45 41.7-82.1 41.3-82.5-1.1-1.1-14.7-3.6-29.2-5.5-17.6-2.3-36.5-3.7-79-5.9-53.4-2.8-77.1-5.6-102.6-12.2-76.1-19.8-113.5-70.6-123.9-169-2.8-25.7-4.1-25.1 13.6-7.3 46.2 46.7 99 69.1 176.9 75.3 20.8 1.7 75.4.7 111-1.9 35.8-2.6 76.1-3.5 91.9-1.9 16.8 1.7 33 5.7 42.9 10.7 11.5 5.7 11.3 4.4 3.2 19.6-12.1 22.7-39.3 72.3-72.4 132.1-31 55.8-60.2 109.1-70.3 128.1-2.8 5.3-5.4 9.6-5.7 9.5-.4-.2-9.4-1.3-20.1-2.6z"/>
</svg>