<svg xmlns="http://www.w3.org/2000/svg" xml:space="preserve" id="svg2" x="0" y="0"
    style="enable-background:new 0 0 847.2 847.8" version="1.1" viewBox="0 0 847.2 847.8">
    <style>
        .st0 {
            fill: #fff
        }
    </style>
    <circle cx="423.9" cy="423.9" r="423.9" />
    <circle cx="423.9" cy="423.9" r="336.6" class="st0" />
    <path id="path2838"
        d="M442.9 744.1c-5-.5-9.7-1.2-10.4-1.6-1.4-.8-.7-2.1 27.8-51.1 6.8-11.7 22.1-38.2 33.9-58.7 11.9-20.6 25.3-43.7 29.9-51.4s9.6-16.5 11.2-19.4c1.6-2.9 7-12.2 12-20.7l9-15.4-1.6-3.1c-.9-1.7-3.1-5.3-5-7.9-20.4-28.6-47.8-42.4-91.7-46-16.9-1.4-34.2-1.3-65.2.4-53.3 3-62.6 3.4-83.1 3.4-52.4 0-89.1-6.9-124.1-23.5-25.1-11.9-46.6-28.2-67-50.7l-6.1-6.8.6-6.8c.9-9.5 5.9-33.5 9.8-47 14.6-50.1 38.9-92.3 74.6-129.9 9.4-9.9 29.1-27.5 37.1-33.2l3.3-2.3 9.5 9.7c30.4 31.1 67.3 44.9 120.1 44.9 25.9 0 48.8-2.5 111.1-12.1 49.6-7.7 73.1-9.8 98.5-8.9 34.2 1.2 57.3 7.7 80.1 22.5 10.1 6.6 27.2 24 35.1 35.9 7.2 10.7 15.3 27 20.6 41.5l3.5 9.4-5.7 10c-3.1 5.5-11.7 20.4-19.1 33.3-7.4 12.8-14.1 24.6-15 26.2-3.5 6.2-24.2 41.8-37.2 64.1-7.5 12.8-15 25.7-16.7 28.6-6 10.4-41 70.4-64.3 110.2-8.7 14.8-39.9 68.5-43.2 74.2-1.4 2.4-8.3 14.4-15.4 26.7s-14.7 25.6-17 29.6c-10.1 17.8-13 22.9-13.9 23.9-.5.6-3.5 1.4-6.6 1.7s-6.7.7-8 .9c-1.2.1-6.3-.1-11.4-.6z"
        style="fill:red" />
    <path id="path2834"
        d="M335.8 729.5c-8.9-1.1-16.3-2.4-16.3-2.9s15.8-31.7 35-69.3c19.3-37.6 34.8-68.6 34.5-68.9-.9-.9-12.3-3-24.4-4.6-14.7-1.9-30.5-3.1-66-4.9-44.6-2.3-64.4-4.7-85.7-10.2-63.6-16.5-94.8-59-103.5-141.2-2.3-21.5-3.4-21 11.4-6.1 38.6 39 82.7 57.7 147.8 62.9 17.4 1.4 63 .6 92.7-1.6 29.9-2.2 63.6-2.9 76.8-1.6 14 1.4 27.6 4.8 35.8 8.9 9.6 4.8 9.4 3.7 2.7 16.4-10.1 19-32.8 60.4-60.5 110.3-25.9 46.6-50.3 91.1-58.7 107-2.3 4.4-4.5 8-4.8 7.9-.3-.1-7.8-1-16.8-2.1z" />
</svg>