<svg xmlns="http://www.w3.org/2000/svg" xml:space="preserve" id="Ebene_1" x="0" y="0" style="enable-background:new 0 0 300 300" version="1.1" viewBox="0 0 300 300">
	<style>.st1{fill:#5852bf}</style>
	<path d="M149.2 278.6c-68.1-.4-123.6-53.8-127.5-121C17.1 79.3 79.3 17.1 157.6 21.7c67.2 3.9 120.5 59.4 121 127.5 0 .5-.2 1-.6 1.4l-62.8 62.8-64.6 64.6c-.4.4-.9.6-1.4.6z" style="fill:#fef1f0"/>
	<path d="M158 14.7c-39.9-2.3-77 11.5-104.4 38.9C26.2 81 12.3 118.1 14.7 158c4.1 71.1 63.2 127.1 134.5 127.6h.1c2.4 0 4.7-1 6.3-2.6L283 155.6c1.7-1.7 2.6-4 2.6-6.4-.5-71.3-56.5-130.4-127.6-134.5zM28.6 157.2c-2-35.9 10.3-69.2 34.9-93.7 22.8-22.8 53-35.1 85.9-35.1 2.6 0 5.2.1 7.8.2 62.9 3.7 112.7 55.4 114.3 118.2-1.5 1.3-9.4 6.3-37.4 8.7-39.5 3.3-55.9 19.2-58.8 22.5-3.2 2.9-19.1 19.3-22.5 58.8-2.1 24.8-5.1 32.7-6.1 34.7C84 269.9 32.3 220.1 28.6 157.2zm222.5 10.4-85.9 85.9c.6-4.8 1.1-10 1.6-15.6 3.1-36.5 17.8-49.5 17.9-49.6l.4-.3.5-.6c.1-.1 13.1-14.9 49.7-18 5.9-.4 11.1-1.1 15.8-1.8z" class="st1"/>
	<path d="M92.6 113.2c-3.9 0-7 3.1-7 7s3.1 7 7 7h.4c3.9 0 7-3.1 7-7s-3.1-7-7-7h-.4zM147.3 112.2c-3.9 0-7 3.1-7 7s3.1 7 7 7h.4c3.9 0 7-3.1 7-7s-3.1-7-7-7h-.4zM149 174.7c.4.1.7.1 1.1.1 3.4 0 6.4-2.5 6.9-5.9.6-3.8-2-7.4-5.8-8L87 150.7c-3.8-.6-7.4 2-8 5.8s2 7.4 5.8 8l64.2 10.2zM107.6 106.2c2.6 0 5.2-1.5 6.4-4 1.6-3.5.1-7.7-3.4-9.3l-30-14c-3.5-1.6-7.7-.1-9.3 3.4-1.6 3.5-.1 7.7 3.4 9.3l30 14c.9.4 1.9.6 2.9.6zM135.9 104c1 0 2-.2 3-.7L168 89.7c3.5-1.6 5-5.8 3.4-9.3-1.6-3.5-5.8-5-9.3-3.4L133 90.6c-3.5 1.6-5 5.8-3.4 9.3 1.2 2.6 3.7 4.1 6.3 4.1z" class="st1"/>
</svg>