<svg width="158" height="30" viewBox="0 0 158 30" fill="none" xmlns="http://www.w3.org/2000/svg">
<path d="M14.92 27.86C8.11003 27.82 2.56003 22.48 2.17003 15.76C1.71003 7.93 7.93003 1.71 15.76 2.17C22.48 2.56 27.81 8.11 27.86 14.92C27.86 14.97 27.84 15.02 27.8 15.06L21.52 21.34L15.06 27.8C15.02 27.84 14.97 27.86 14.92 27.86Z" fill="#FEF1F0"/>
<path d="M15.8 1.46999C11.81 1.23999 8.09998 2.61999 5.35998 5.35999C2.61998 8.09999 1.22998 11.81 1.46998 15.8C1.87998 22.91 7.78998 28.51 14.92 28.56C14.92 28.56 14.92 28.56 14.93 28.56C15.17 28.56 15.4 28.46 15.56 28.3L28.3 15.56C28.47 15.39 28.56 15.16 28.56 14.92C28.51 7.78999 22.91 1.87999 15.8 1.46999ZM2.85998 15.72C2.65998 12.13 3.88998 8.79999 6.34998 6.34999C8.62998 4.06999 11.65 2.83999 14.94 2.83999C15.2 2.83999 15.46 2.84999 15.72 2.85999C22.01 3.22999 26.99 8.39999 27.15 14.68C27 14.81 26.21 15.31 23.41 15.55C19.46 15.88 17.82 17.47 17.53 17.8C17.21 18.09 15.62 19.73 15.28 23.68C15.07 26.16 14.77 26.95 14.67 27.15C8.39998 26.99 3.22998 22.01 2.85998 15.72ZM25.11 16.76L16.52 25.35C16.58 24.87 16.63 24.35 16.68 23.79C16.99 20.14 18.46 18.84 18.47 18.83L18.51 18.8L18.56 18.74C18.57 18.73 19.87 17.25 23.53 16.94C24.12 16.9 24.64 16.83 25.11 16.76Z" fill="#5852BF"/>
<path d="M9.26 11.32C8.87 11.32 8.56 11.63 8.56 12.02C8.56 12.41 8.87 12.72 9.26 12.72H9.3C9.69 12.72 10 12.41 10 12.02C10 11.63 9.69 11.32 9.3 11.32H9.26Z" fill="#5852BF"/>
<path d="M14.73 11.22C14.34 11.22 14.03 11.53 14.03 11.92C14.03 12.31 14.34 12.62 14.73 12.62H14.77C15.16 12.62 15.47 12.31 15.47 11.92C15.47 11.53 15.16 11.22 14.77 11.22H14.73Z" fill="#5852BF"/>
<path d="M14.9 17.47C14.94 17.48 14.97 17.48 15.01 17.48C15.35 17.48 15.65 17.23 15.7 16.89C15.76 16.51 15.5 16.15 15.12 16.09L8.69997 15.07C8.31997 15.01 7.95997 15.27 7.89997 15.65C7.83997 16.03 8.09997 16.39 8.47997 16.45L14.9 17.47Z" fill="#5852BF"/>
<path d="M10.7599 10.62C11.0199 10.62 11.2799 10.47 11.3999 10.22C11.5599 9.86999 11.4099 9.44999 11.0599 9.28999L8.05995 7.88999C7.70995 7.72999 7.28995 7.87999 7.12995 8.22999C6.96995 8.57999 7.11995 8.99999 7.46995 9.15999L10.4699 10.56C10.5599 10.6 10.6599 10.62 10.7599 10.62Z" fill="#5852BF"/>
<path d="M13.59 10.4C13.69 10.4 13.79 10.38 13.89 10.33L16.8 8.96999C17.15 8.80999 17.3 8.38999 17.14 8.03999C16.98 7.68999 16.56 7.53999 16.21 7.69999L13.3 9.05999C12.95 9.21999 12.8 9.63999 12.96 9.98999C13.08 10.25 13.33 10.4 13.59 10.4Z" fill="#5852BF"/>
<path d="M48.2891 22C47.6624 22 47.1757 21.8467 46.8291 21.54C46.4957 21.22 46.2957 20.78 46.2291 20.22H46.1291C45.9424 20.86 45.5757 21.36 45.0291 21.72C44.4824 22.0667 43.8091 22.24 43.0091 22.24C41.9691 22.24 41.1424 21.9667 40.5291 21.42C39.9157 20.8733 39.6091 20.1133 39.6091 19.14C39.6091 17.06 41.1357 16.02 44.1891 16.02H46.0091V15.34C46.0091 14.6867 45.8491 14.1933 45.5291 13.86C45.2091 13.5267 44.6891 13.36 43.9691 13.36C43.3157 13.36 42.7891 13.4867 42.3891 13.74C41.9891 13.9933 41.6491 14.32 41.3691 14.72L39.9091 13.48C40.2291 12.9067 40.7424 12.4267 41.4491 12.04C42.1691 11.64 43.0957 11.44 44.2291 11.44C45.5891 11.44 46.6491 11.76 47.4091 12.4C48.1824 13.0267 48.5691 13.9667 48.5691 15.22V20.08H49.7891V22H48.2891ZM43.8691 20.48C44.4824 20.48 44.9891 20.34 45.3891 20.06C45.8024 19.7667 46.0091 19.3733 46.0091 18.88V17.5H44.2491C42.8491 17.5 42.1491 17.94 42.1491 18.82V19.22C42.1491 19.6333 42.3024 19.9467 42.6091 20.16C42.9157 20.3733 43.3357 20.48 43.8691 20.48ZM58.3213 20.18H58.2213C57.9946 20.74 57.6413 21.2267 57.1613 21.64C56.6946 22.04 56.0413 22.24 55.2013 22.24C54.1879 22.24 53.3613 21.9067 52.7213 21.24C52.0946 20.56 51.7813 19.5933 51.7813 18.34V11.68H54.3413V17.98C54.3413 19.4733 54.9879 20.22 56.2813 20.22C56.5346 20.22 56.7813 20.1867 57.0213 20.12C57.2746 20.0533 57.4946 19.9533 57.6813 19.82C57.8813 19.6733 58.0346 19.5 58.1413 19.3C58.2613 19.1 58.3213 18.86 58.3213 18.58V11.68H60.8813V22H58.3213V20.18ZM63.7734 19.98H66.9334V13.7H63.5734V11.68H66.9334V10C66.9334 9.58667 66.9868 9.21333 67.0934 8.88C67.2134 8.53333 67.3934 8.24 67.6334 8C67.8734 7.74667 68.1734 7.55333 68.5334 7.42C68.9068 7.27333 69.3401 7.2 69.8334 7.2H73.3134V9.22H69.4934V11.68H73.3134V13.7H69.4934V19.98H72.8534V22H63.7734V19.98ZM75.7056 7.2H78.2656V15.88H78.3856L79.8856 14.24L82.4256 11.68H85.4056L81.3056 15.74L85.8456 22H82.7856L79.4856 17.2L78.2656 18.36V22H75.7056V7.2ZM87.4978 19.98H90.7778V9.22H87.4978V7.2H93.3378V19.98H96.6378V22H87.4978V19.98ZM104.19 22.24C103.363 22.24 102.63 22.1133 101.99 21.86C101.35 21.6067 100.81 21.2467 100.37 20.78C99.9433 20.3133 99.6167 19.7533 99.39 19.1C99.1633 18.4333 99.05 17.6867 99.05 16.86C99.05 16.02 99.1633 15.2667 99.39 14.6C99.63 13.9333 99.9633 13.3667 100.39 12.9C100.817 12.4333 101.33 12.0733 101.93 11.82C102.543 11.5667 103.23 11.44 103.99 11.44C104.737 11.44 105.41 11.5667 106.01 11.82C106.61 12.06 107.117 12.4067 107.53 12.86C107.957 13.3133 108.283 13.86 108.51 14.5C108.737 15.14 108.85 15.8467 108.85 16.62V17.46H101.61V17.72C101.61 18.4667 101.843 19.0733 102.31 19.54C102.777 19.9933 103.43 20.22 104.27 20.22C104.91 20.22 105.457 20.0933 105.91 19.84C106.377 19.5733 106.763 19.2267 107.07 18.8L108.53 20.26C108.157 20.8067 107.61 21.2733 106.89 21.66C106.183 22.0467 105.283 22.24 104.19 22.24ZM104.01 13.32C103.29 13.32 102.71 13.5467 102.27 14C101.83 14.4533 101.61 15.0533 101.61 15.8V15.94H106.29V15.76C106.29 15.0133 106.083 14.42 105.67 13.98C105.27 13.54 104.717 13.32 104.01 13.32ZM111.222 7.2H113.782V13.5H113.922C114.202 12.8733 114.582 12.3733 115.062 12C115.556 11.6267 116.202 11.44 117.002 11.44C117.589 11.44 118.122 11.5533 118.602 11.78C119.096 11.9933 119.516 12.3267 119.862 12.78C120.209 13.22 120.476 13.78 120.662 14.46C120.849 15.14 120.942 15.9333 120.942 16.84C120.942 17.7467 120.849 18.54 120.662 19.22C120.476 19.9 120.209 20.4667 119.862 20.92C119.516 21.36 119.096 21.6933 118.602 21.92C118.122 22.1333 117.589 22.24 117.002 22.24C116.202 22.24 115.556 22.0533 115.062 21.68C114.582 21.3067 114.202 20.8067 113.922 20.18H113.782V22H111.222V7.2ZM115.922 20.2C116.669 20.2 117.242 19.9733 117.642 19.52C118.056 19.0667 118.262 18.4467 118.262 17.66V16.02C118.262 15.2333 118.056 14.6133 117.642 14.16C117.242 13.7067 116.669 13.48 115.922 13.48C115.336 13.48 114.829 13.6267 114.402 13.92C113.989 14.2 113.782 14.6333 113.782 15.22V18.46C113.782 19.0467 113.989 19.4867 114.402 19.78C114.829 20.06 115.336 20.2 115.922 20.2ZM129.674 20.18H129.574C129.348 20.74 128.994 21.2267 128.514 21.64C128.048 22.04 127.394 22.24 126.554 22.24C125.541 22.24 124.714 21.9067 124.074 21.24C123.448 20.56 123.134 19.5933 123.134 18.34V11.68H125.694V17.98C125.694 19.4733 126.341 20.22 127.634 20.22C127.888 20.22 128.134 20.1867 128.374 20.12C128.628 20.0533 128.848 19.9533 129.034 19.82C129.234 19.6733 129.388 19.5 129.494 19.3C129.614 19.1 129.674 18.86 129.674 18.58V11.68H132.234V22H129.674V20.18ZM135.127 22V11.68H137.687V13.5H137.787C138.013 12.94 138.36 12.46 138.827 12.06C139.307 11.6467 139.967 11.44 140.807 11.44C141.82 11.44 142.64 11.78 143.267 12.46C143.907 13.1267 144.227 14.0867 144.227 15.34V22H141.667V15.7C141.667 14.2067 141.02 13.46 139.727 13.46C139.46 13.46 139.207 13.4933 138.967 13.56C138.727 13.6267 138.507 13.7333 138.307 13.88C138.12 14.0133 137.967 14.18 137.847 14.38C137.74 14.58 137.687 14.82 137.687 15.1V22H135.127ZM157.039 23.08C157.039 24.16 156.585 24.9533 155.679 25.46C154.785 25.98 153.385 26.24 151.479 26.24C150.545 26.24 149.765 26.18 149.139 26.06C148.512 25.9533 148.005 25.7933 147.619 25.58C147.245 25.3667 146.979 25.1067 146.819 24.8C146.659 24.5067 146.579 24.1733 146.579 23.8C146.579 23.2267 146.745 22.7867 147.079 22.48C147.412 22.1733 147.879 21.9467 148.479 21.8V21.64C148.079 21.5067 147.759 21.32 147.519 21.08C147.292 20.84 147.179 20.5067 147.179 20.08C147.179 19.5733 147.345 19.1933 147.679 18.94C148.025 18.6867 148.479 18.4933 149.039 18.36V18.26C148.425 17.9667 147.945 17.5533 147.599 17.02C147.252 16.4867 147.079 15.84 147.079 15.08C147.079 14.5067 147.179 14 147.379 13.56C147.592 13.1067 147.885 12.7267 148.259 12.42C148.645 12.1 149.105 11.86 149.639 11.7C150.172 11.5267 150.765 11.44 151.419 11.44C152.112 11.44 152.739 11.5333 153.299 11.72V11.28C153.299 10.88 153.425 10.5467 153.679 10.28C153.945 10.0133 154.312 9.88 154.779 9.88H156.639V11.8H154.199V12.14C154.705 12.4467 155.092 12.8467 155.359 13.34C155.639 13.82 155.779 14.4 155.779 15.08C155.779 15.6533 155.672 16.1667 155.459 16.62C155.259 17.0733 154.965 17.4533 154.579 17.76C154.205 18.0667 153.745 18.3067 153.199 18.48C152.665 18.64 152.072 18.72 151.419 18.72C151.152 18.72 150.892 18.7133 150.639 18.7C150.399 18.6733 150.165 18.6267 149.939 18.56C149.752 18.6267 149.572 18.7333 149.399 18.88C149.225 19.0267 149.139 19.22 149.139 19.46C149.139 19.78 149.292 19.98 149.599 20.06C149.905 20.1267 150.272 20.16 150.699 20.16H153.039C153.759 20.16 154.372 20.2333 154.879 20.38C155.385 20.5133 155.799 20.7133 156.119 20.98C156.439 21.2333 156.672 21.54 156.819 21.9C156.965 22.26 157.039 22.6533 157.039 23.08ZM154.639 23.26C154.639 22.9533 154.512 22.7067 154.259 22.52C154.019 22.3467 153.565 22.26 152.899 22.26H149.339C148.939 22.4867 148.739 22.82 148.739 23.26C148.739 23.62 148.885 23.92 149.179 24.16C149.485 24.4 149.999 24.52 150.719 24.52H152.379C153.885 24.52 154.639 24.1 154.639 23.26ZM151.419 17.04C152.072 17.04 152.552 16.8867 152.859 16.58C153.165 16.26 153.319 15.8467 153.319 15.34V14.82C153.319 14.3133 153.165 13.9067 152.859 13.6C152.552 13.28 152.072 13.12 151.419 13.12C150.779 13.12 150.305 13.28 149.999 13.6C149.692 13.9067 149.539 14.3133 149.539 14.82V15.34C149.539 15.8467 149.692 16.26 149.999 16.58C150.305 16.8867 150.779 17.04 151.419 17.04Z" fill="#5852BF"/>
</svg>
