<?xml version="1.0" encoding="utf-8"?>
<!-- Generator: Adobe Illustrator 28.0.0, SVG Export Plug-In . SVG Version: 6.00 Build 0)  -->
<svg version="1.1" id="Ebene_1" xmlns="http://www.w3.org/2000/svg" xmlns:xlink="http://www.w3.org/1999/xlink" x="0px" y="0px"
	 viewBox="0 0 1000 1000" style="enable-background:new 0 0 1000 1000;" xml:space="preserve">
<style type="text/css">
	.st0{fill:#FFD23F;}
	.st1{fill:#FFFFFF;}
	.st2{fill:none;stroke:#000000;stroke-width:7.8517;stroke-linecap:round;stroke-linejoin:round;stroke-miterlimit:10;}
	.st3{fill:none;stroke:#000000;stroke-width:7.8517;stroke-miterlimit:10;}
	.st4{fill:#F3FCF0;}
	.st5{fill:none;stroke:#000000;stroke-width:9.3554;stroke-linecap:round;stroke-linejoin:round;}
	.st6{fill:none;stroke:#000000;stroke-width:9.3554;stroke-linecap:round;stroke-miterlimit:10;}
</style>
<g>
	<g>
		<circle class="st0" cx="766.6" cy="736.2" r="90.3"/>
		<path class="st1" d="M751.5,780.9c-1.1,6.8-1.7,21.5,15.1,18.2V782"/>
		<path class="st1" d="M781.8,780.9c1.1,6.8,1.7,21.5-15.1,18.2V782"/>
		<circle class="st2" cx="766.6" cy="736.2" r="90.3"/>
		<path class="st2" d="M700.2,714.3c0,0-3.7,33.6,26.9,31.1c10.3-0.8,30.7-2.6,30.9-32.8c0-2.7,0-6.3-3.2-10.3
			c-4.2-5.4-14-7.7-39-5.6C715.8,696.7,702.2,696.3,700.2,714.3z"/>
		<polyline class="st2" points="700.5,712.2 698.8,699 713.8,696.9 		"/>
		<path class="st2" d="M833.1,714.3c0,0,3.7,33.6-26.9,31.1c-10.3-0.8-30.7-2.6-30.9-32.8c0-2.7,0-6.3,3.2-10.3
			c4.2-5.4,14-7.7,39-5.6C817.5,696.7,831,696.3,833.1,714.3z"/>
		<path class="st2" d="M749.7,698.4c0,0,16.2,9.9,34,0"/>
		<path class="st2" d="M758,717.6c0,0,8.4-14.7,17.2,0"/>
		<polyline class="st2" points="832.8,712.2 834.5,699 819.4,696.9 		"/>
		<path class="st2" d="M759.3,712.6c0,0,7-14.7,14.5,0"/>
		<path class="st3" d="M751.5,780.9c-1.1,6.8-1.7,21.5,15.1,18.2V782"/>
		<path d="M743.1,716.6c0,6.5-5.3,11.8-11.8,11.8c-6.5,0-11.8-5.3-11.8-11.8c0-6.5,5.3-11.8,11.8-11.8
			C737.8,704.8,743.1,710.1,743.1,716.6"/>
		<path d="M813.7,716.6c0,6.5-5.3,11.8-11.8,11.8c-6.5,0-11.8-5.3-11.8-11.8c0-6.5,5.3-11.8,11.8-11.8
			C808.5,704.8,813.7,710.1,813.7,716.6"/>
		<path class="st3" d="M781.8,780.9c1.1,6.8,1.7,21.5-15.1,18.2V782"/>
		<path class="st2" d="M805.2,770.8c-25.8,13.8-55.1,14.4-77.1,0"/>
	</g>
	<g>
		<g>
			<path d="M252.8,821.4c-5.8-0.1-11.3-0.9-16.5-2.3c-5.2-1.4-9.9-3.8-14-7.1c-4.1-3.3-7.4-7.6-9.7-13.1c-2.4-5.5-3.5-12.2-3.5-20.3
				v-48.8c0-4.6,1.5-8,4.5-10.3c3-2.3,6.6-3.4,10.6-3.4c3.9,0,7.4,1.1,10.5,3.4c3.1,2.3,4.6,5.7,4.6,10.3v42.1
				c0,6.8,1.6,11.8,4.8,15c3.2,3.2,7.4,4.6,12.5,4.3c5.4-0.4,9.2-2.4,11.6-6.2c2.4-3.7,3-8.7,1.9-15c-0.7-4.2-1.4-7.8-2.2-10.7
				c-0.8-2.9-1.6-5.5-2.4-7.7c-0.8-2.3-1.5-4.5-2.1-6.8c-0.6-2.3-1-4.9-1.3-8c-0.6-6.4,0.7-11.5,4-15.2c3.2-3.7,7.5-5.5,12.7-5.5
				s9.4,1.8,12.4,5.3c3,3.6,4.5,8.9,4.5,16.1v41.1c0,8.1-1.1,14.9-3.4,20.4c-2.3,5.5-5.4,9.9-9.4,13.3c-4,3.3-8.6,5.7-13.7,7.1
				C264,820.7,258.5,821.4,252.8,821.4z"/>
			<path d="M319.9,820.5c-4.4,0-8.1-1.3-10.9-4c-2.9-2.7-4.3-6.1-4.3-10.2V730c0-4.2,1.4-7.7,4.2-10.6c2.8-2.8,6.4-4.2,10.9-4.2
				c4.8,0,8.5,1.4,11.2,4.2c2.7,2.8,4,6.3,4,10.3v26.6h26.8V730c0-4.2,1.4-7.7,4.2-10.6c2.8-2.8,6.5-4.2,11.2-4.2
				c4.7,0,8.4,1.4,11.1,4.2c2.7,2.8,4,6.3,4,10.3v76.5c0,4.1-1.4,7.5-4.2,10.2c-2.8,2.7-6.4,4-10.6,4c-4.6,0-8.4-1.3-11.3-4
				c-2.9-2.7-4.4-6.1-4.4-10.2v-28.7H335v28.7c0,4.1-1.4,7.5-4.2,10.2C327.9,819.2,324.3,820.5,319.9,820.5z"/>
			<path d="M416.1,820.9c-5,0-8.7-1.5-11.1-4.5c-2.4-3-3.6-7-3.6-12v-67.1c0-7.3,2-12.7,6-16.1c4-3.5,8.8-5.2,14.3-5.2
				c5.3,0,9.8,1.7,13.5,5.2c3.7,3.5,6.4,8.9,8.1,16.4l11.2,48.8h3.7l11.2-48.8c1.7-7.5,4.5-13,8.3-16.4c3.8-3.5,8.3-5.2,13.6-5.2
				c5.6,0,10.4,1.7,14.3,5.2c4,3.5,6,8.8,6,16.1v67.1c0,5-1.2,9-3.7,12c-2.4,3-6.2,4.5-11.2,4.5c-4.8,0-8.5-1.5-11.1-4.5
				c-2.6-3-3.9-7-3.9-12v-38.7c0-1-0.1-1.9-0.4-2.7c-0.2-0.8-0.9-1.2-1.9-1.2c-0.9,0-1.5,0.4-1.9,1.2c-0.4,0.8-0.7,1.7-0.9,2.7
				l-5.5,36.3c-0.7,3.9-1.5,7.3-2.4,10.2c-0.9,2.8-2.3,5-4.2,6.5c-1.9,1.5-4.7,2.2-8.4,2.2c-3.6,0-6.3-0.7-8.3-2.2
				c-2-1.5-3.4-3.7-4.3-6.5c-0.9-2.8-1.7-6.2-2.2-10.2l-5.6-36.3c-0.1-1-0.3-1.9-0.7-2.7c-0.4-0.8-1.1-1.2-2-1.2
				c-1,0-1.6,0.4-1.9,1.2c-0.3,0.8-0.4,1.7-0.4,2.7v38.7c0,5-1.3,9-3.8,12C424.6,819.4,420.9,820.9,416.1,820.9z"/>
			<path d="M526.5,835.5c0-2.4,0.8-4.3,2.4-5.7c1.6-1.4,4.2-2.1,7.6-2.1c2.7,0,5.1,0,7.3,0.1c2.2,0.1,3.6,0.1,4.2,0.1l-1.2-6.3
				c-0.5,0.3-1.5,0.7-3,1.2c-1.5,0.5-3.7,0.8-6.6,0.8c-4.7,0-8.8-1.4-12.3-4.2s-5.3-6.8-5.3-12s1.7-9.4,5-12.6
				c3.4-3.2,7.7-4.8,13-4.8c5.3,0,9.6,1.5,12.9,4.5c3.3,3,5,7.7,5,14.3c0,3.4-0.2,7.2-0.5,11.2c-0.3,4-1.1,7.8-2.4,11.4
				s-3.1,6.5-5.7,8.7c-2.5,2.3-6,3.4-10.4,3.4c-3.5,0-6-0.7-7.6-2.2C527.3,839.8,526.5,837.9,526.5,835.5z"/>
		</g>
		<g>
			<path d="M89.6,958c-6.4-1-10.6-3.9-12.5-8.9c-1.9-4.9-1.5-11.2,1.2-18.8l19-54c1.7-5,3.7-9.3,6-12.8c2.3-3.6,5.1-6.3,8.5-8.2
				c3.4-1.9,7.7-2.9,12.7-2.9c7.7,0,13.5,2.1,17.4,6.3c3.9,4.2,7.1,10.1,9.7,17.6l18.9,54c2.7,7.6,3.2,13.8,1.5,18.8
				c-1.7,4.9-5.8,7.9-12.3,8.9c-5.3,0.7-9.9,0-13.8-1.9s-6.2-5-7-9.4c-0.6-2.9-0.7-5.3-0.2-7.2c0.4-1.9,0.8-3.5,1.2-4.6
				c0.3-1,0.3-1.9,0.1-2.8c-0.2-0.9-1-1.4-2.2-1.4h-26.8c-1.2,0-2,0.5-2.2,1.4c-0.2,0.9-0.2,1.9,0.2,2.8c0.4,1.1,0.8,2.7,1.2,4.6
				c0.4,1.9,0.3,4.3-0.1,7.2c-0.8,4.3-3,7.4-6.8,9.4C99.4,958.1,94.9,958.7,89.6,958z M135,910.6l-7.5-23.5
				c-0.2-0.9-0.5-1.7-0.9-2.2c-0.4-0.5-1.1-0.8-2.1-0.8c-1,0-1.7,0.3-2.1,0.8c-0.4,0.5-0.8,1.3-1.1,2.2l-7.3,23.5H135z"/>
			<path d="M223.8,958.3c-9.4,0-17.9-1.9-25.4-5.8c-7.5-3.9-13.5-9.7-17.8-17.4c-4.3-7.7-6.5-17.1-6.5-28.4
				c0-11.2,2.2-20.9,6.6-29.1c4.4-8.2,10.4-14.4,18-18.8c7.6-4.4,16.3-6.6,26.1-6.6c11.3,0,20,1.6,26.1,4.7c6,3.2,9.1,7.9,9.1,14.1
				c0,4.8-1.3,8.8-3.9,11.9c-2.6,3.1-6.1,4.7-10.7,4.7c-3.8,0-7.6-0.5-11.2-1.5c-3.6-1-7.8-1.5-12.6-1.5c-6.1,0-11,1.8-14.5,5.3
				c-3.6,3.6-5.3,8.2-5.3,14c0,5.7,1.8,10.4,5.3,14.2c3.6,3.8,8.4,5.7,14.5,5.7c3.3,0,6.3-0.3,9-0.8c2.7-0.5,5.4-1.1,8.1-1.7
				c2.6-0.6,5.5-0.9,8.6-0.9c5.1,0,8.8,1.7,11.2,5c2.4,3.3,3.6,7.4,3.6,12.3c0,4.9-1.8,8.9-5.3,11.9c-3.6,3-8.2,5.2-14,6.6
				C237,957.6,230.7,958.3,223.8,958.3z"/>
			<path d="M282.6,885.1c-4.8,0-8.7-1.4-11.7-4.2c-3-2.8-4.5-6.6-4.5-11.5c0-4.8,1.4-8.7,4.1-11.6c2.7-2.9,6.8-4.4,12.2-4.4h62.1
				c5.4,0,9.4,1.5,12.2,4.4c2.7,2.9,4.1,6.8,4.1,11.6c0,4.9-1.5,8.7-4.5,11.5c-3,2.8-6.9,4.2-11.7,4.2c-3.3,0-5.9-0.4-7.9-1.1
				c-2-0.7-3.6-1.6-4.8-2.6s-2.4-1.9-3.6-2.6c-1.1-0.7-2.6-1.1-4.3-1.1l-1.3,2.6c0.4,0.9,1.1,2.1,2,3.7c1,1.6,1.9,3.8,2.7,6.8
				c0.9,2.9,1.3,6.9,1.3,11.9v41.6c0,3.9-1.5,7.2-4.4,9.8c-2.9,2.6-6.5,3.9-10.7,3.9c-4.3,0-7.9-1.3-10.9-3.9
				c-2.9-2.6-4.4-5.8-4.4-9.8v-41.6c0-5,0.4-8.9,1.3-11.9c0.9-2.9,1.8-5.2,2.8-6.8c1-1.6,1.7-2.8,2.1-3.7l-1.4-2.6
				c-1.7,0-3.2,0.4-4.3,1.1c-1.1,0.7-2.4,1.6-3.6,2.6s-2.8,1.9-4.8,2.6C288.6,884.8,286,885.1,282.6,885.1z"/>
			<path d="M410.7,958.5c-5.8-0.1-11.3-0.9-16.5-2.3c-5.2-1.4-9.9-3.8-14-7.1c-4.1-3.3-7.4-7.6-9.7-13.1c-2.4-5.5-3.5-12.2-3.5-20.3
				v-48.8c0-4.6,1.5-8,4.5-10.3c3-2.3,6.6-3.4,10.6-3.4c3.9,0,7.4,1.1,10.5,3.4c3.1,2.3,4.6,5.7,4.6,10.3v42.1
				c0,6.8,1.6,11.8,4.8,15c3.2,3.2,7.4,4.6,12.5,4.3c5.4-0.4,9.2-2.4,11.6-6.2c2.4-3.7,3-8.7,1.9-15c-0.7-4.2-1.4-7.8-2.2-10.7
				c-0.8-2.9-1.6-5.5-2.4-7.7c-0.8-2.3-1.5-4.5-2.1-6.8c-0.6-2.3-1-4.9-1.3-8c-0.6-6.4,0.7-11.5,4-15.2c3.2-3.7,7.5-5.5,12.7-5.5
				c5.3,0,9.4,1.8,12.4,5.3c3,3.6,4.5,8.9,4.5,16.1v41.1c0,8.1-1.1,14.9-3.4,20.4c-2.3,5.5-5.4,9.9-9.4,13.3
				c-4,3.3-8.6,5.7-13.7,7.1C421.9,957.8,416.4,958.5,410.7,958.5z"/>
			<path d="M469.9,958c-6.4-1-10.6-3.9-12.5-8.9c-1.9-4.9-1.5-11.2,1.2-18.8l19-54c1.7-5,3.7-9.3,6-12.8c2.3-3.6,5.1-6.3,8.5-8.2
				c3.4-1.9,7.7-2.9,12.7-2.9c7.7,0,13.5,2.1,17.4,6.3c3.9,4.2,7.1,10.1,9.7,17.6l18.9,54c2.7,7.6,3.2,13.8,1.5,18.8
				c-1.7,4.9-5.8,7.9-12.3,8.9c-5.3,0.7-9.9,0-13.8-1.9c-3.9-1.9-6.2-5-7-9.4c-0.6-2.9-0.7-5.3-0.2-7.2c0.4-1.9,0.8-3.5,1.2-4.6
				c0.3-1,0.3-1.9,0.1-2.8c-0.2-0.9-1-1.4-2.2-1.4h-26.8c-1.2,0-2,0.5-2.2,1.4c-0.2,0.9-0.2,1.9,0.2,2.8c0.4,1.1,0.8,2.7,1.2,4.6
				c0.4,1.9,0.3,4.3-0.1,7.2c-0.8,4.3-3,7.4-6.8,9.4S475.1,958.7,469.9,958z M515.2,910.6l-7.5-23.5c-0.2-0.9-0.5-1.7-0.9-2.2
				c-0.4-0.5-1.1-0.8-2.1-0.8c-1,0-1.7,0.3-2.1,0.8c-0.4,0.5-0.8,1.3-1.1,2.2l-7.3,23.5H515.2z"/>
			<path d="M560.3,867.1c0-4.4,1.4-7.8,4.1-10.3s6.3-3.7,10.6-3.7c4.5,0,8.1,1.2,10.8,3.7c2.7,2.4,4,5.9,4,10.3v61.4
				c0,1.8,0.5,3.1,1.4,3.8c1,0.7,2.5,0.5,4.8-0.8c4.8-2.8,9.1-5,12.8-6.7c3.7-1.7,7.9-2.5,12.4-2.5c6.2,0,10.9,1.6,14.1,4.9
				c3.2,3.3,4.8,7.5,4.8,12.8c0,5.7-1.7,10-5.1,13.1c-3.4,3.1-8.9,4.6-16.3,4.6H589c-6.3,0-11.6-0.7-15.8-2.2
				c-4.2-1.5-7.4-4.2-9.6-8.1c-2.2-3.9-3.2-9.7-3.2-17.1V867.1z"/>
			<path d="M646,867.1c0-4.4,1.4-7.8,4.1-10.3c2.7-2.4,6.3-3.7,10.6-3.7c4.5,0,8.1,1.2,10.8,3.7c2.7,2.4,4,5.9,4,10.3v61.4
				c0,1.8,0.5,3.1,1.4,3.8c1,0.7,2.5,0.5,4.8-0.8c4.8-2.8,9.1-5,12.8-6.7c3.7-1.7,7.9-2.5,12.4-2.5c6.2,0,10.9,1.6,14.1,4.9
				c3.2,3.3,4.8,7.5,4.8,12.8c0,5.7-1.7,10-5.1,13.1c-3.4,3.1-8.9,4.6-16.3,4.6h-29.7c-6.3,0-11.6-0.7-15.8-2.2
				c-4.2-1.5-7.4-4.2-9.6-8.1c-2.2-3.9-3.2-9.7-3.2-17.1V867.1z"/>
			<path d="M704.4,881c-2.8-6-3.4-11.3-1.9-16.1c1.5-4.8,4.5-8.1,8.8-10c4.4-1.9,8.9-1.9,13.5-0.1c4.6,1.9,7.9,5.8,10,11.7
				c1.1,3,1.8,6.4,2.3,10.3c0.5,3.9,1,7.6,1.7,11.2c0.6,3.6,1.7,6.6,3.2,8.9c1.5,2.4,3.8,3.5,7,3.5c3.2,0,5.5-1.2,7.1-3.5
				c1.5-2.4,2.6-5.3,3.2-8.9c0.6-3.6,1.1-7.3,1.6-11.2c0.4-3.9,1.2-7.3,2.2-10.3c2.2-6,5.6-9.9,10.1-11.7c4.5-1.9,9-1.9,13.4,0.1
				c4.3,1.9,7.3,5.3,8.8,10c1.5,4.7,0.9,10.1-1.9,16.1c-1.4,3.1-3.3,6-5.7,8.7c-2.4,2.7-4.9,5.5-7.7,8.4c-2.8,2.9-5.6,6.1-8.4,9.6
				c-2.8,3.5-5.3,7.5-7.6,12v24.6c0,3.9-1.4,7.2-4.3,9.8c-2.9,2.6-6.5,3.9-10.8,3.9c-4.2,0-7.8-1.3-10.7-3.9
				c-2.9-2.6-4.4-5.8-4.4-9.8v-24.6c-2.2-4.5-4.7-8.5-7.5-12c-2.8-3.5-5.6-6.7-8.4-9.6c-2.8-2.9-5.4-5.7-7.8-8.4
				C707.7,887,705.8,884,704.4,881z"/>
		</g>
		<g>
			<path d="M815.5,953c-5.7,0-10.1-1.5-13.3-4.5c-3.2-3-4.8-7-4.8-12c0-5.1,1.6-9.2,4.9-12.4c3.3-3.2,7.6-4.7,13.1-4.7
				c5.4,0,9.7,1.6,12.9,4.7c3.2,3.1,4.8,7.2,4.8,12.3c0,5-1.5,9-4.6,12.1C825.5,951.4,821.1,953,815.5,953z M850.6,936.4
				c0-5.1,1.6-9.2,4.9-12.4c3.3-3.2,7.6-4.7,13.1-4.7c5.4,0,9.7,1.6,12.9,4.7c3.2,3.1,4.8,7.2,4.8,12.3c0,5-1.5,9-4.6,12.1
				c-3.1,3.1-7.4,4.6-13.1,4.6c-5.7,0-10.1-1.5-13.3-4.5C852.2,945.4,850.6,941.4,850.6,936.4z M903.8,936.4c0-5.1,1.6-9.2,4.9-12.4
				c3.3-3.2,7.6-4.7,13.1-4.7c5.4,0,9.7,1.6,12.9,4.7c3.2,3.1,4.8,7.2,4.8,12.3c0,5-1.5,9-4.6,12.1c-3.1,3.1-7.4,4.6-13.1,4.6
				c-5.7,0-10.1-1.5-13.3-4.5C905.3,945.4,903.8,941.4,903.8,936.4z"/>
		</g>
	</g>
	<g>
		<g>
			<path class="st4" d="M241.4,811c-5.8-0.1-11.3-0.9-16.5-2.3c-5.2-1.4-9.9-3.8-14-7.1c-4.1-3.3-7.4-7.6-9.7-13.1
				c-2.4-5.5-3.5-12.2-3.5-20.3v-48.8c0-4.6,1.5-8,4.5-10.3c3-2.3,6.6-3.4,10.6-3.4c3.9,0,7.4,1.1,10.5,3.4
				c3.1,2.3,4.6,5.7,4.6,10.3v42.1c0,6.8,1.6,11.8,4.8,15c3.2,3.2,7.4,4.6,12.5,4.3c5.4-0.4,9.2-2.4,11.6-6.2c2.4-3.7,3-8.7,1.9-15
				c-0.7-4.2-1.4-7.8-2.2-10.7c-0.8-2.9-1.6-5.5-2.4-7.7c-0.8-2.3-1.5-4.5-2.1-6.8c-0.6-2.3-1-4.9-1.3-8c-0.6-6.4,0.7-11.5,4-15.2
				c3.2-3.7,7.5-5.5,12.7-5.5c5.3,0,9.4,1.8,12.4,5.3c3,3.6,4.5,8.9,4.5,16.1v41.1c0,8.1-1.1,14.9-3.4,20.4
				c-2.3,5.5-5.4,9.9-9.4,13.3c-4,3.3-8.6,5.7-13.7,7.1C252.6,810.3,247.2,811,241.4,811z"/>
			<path class="st4" d="M308.6,810.1c-4.4,0-8.1-1.3-10.9-4c-2.9-2.7-4.3-6.1-4.3-10.2v-76.2c0-4.2,1.4-7.7,4.2-10.6
				c2.8-2.8,6.4-4.2,10.9-4.2c4.8,0,8.5,1.4,11.2,4.2c2.7,2.8,4,6.3,4,10.3v26.6h26.8v-26.4c0-4.2,1.4-7.7,4.2-10.6
				c2.8-2.8,6.5-4.2,11.2-4.2c4.7,0,8.4,1.4,11.1,4.2c2.7,2.8,4,6.3,4,10.3v76.5c0,4.1-1.4,7.5-4.2,10.2c-2.8,2.7-6.4,4-10.6,4
				c-4.6,0-8.4-1.3-11.3-4c-2.9-2.7-4.4-6.1-4.4-10.2v-28.7h-26.8v28.7c0,4.1-1.4,7.5-4.2,10.2C316.6,808.8,313,810.1,308.6,810.1z"
				/>
			<path class="st4" d="M404.8,810.6c-5,0-8.7-1.5-11.1-4.5c-2.4-3-3.6-7-3.6-12V727c0-7.3,2-12.7,6-16.1c4-3.5,8.8-5.2,14.3-5.2
				c5.3,0,9.8,1.7,13.5,5.2c3.7,3.5,6.4,8.9,8.1,16.4l11.2,48.8h3.7l11.2-48.8c1.7-7.5,4.5-13,8.3-16.4c3.8-3.5,8.3-5.2,13.6-5.2
				c5.6,0,10.4,1.7,14.3,5.2c4,3.5,6,8.8,6,16.1v67.1c0,5-1.2,9-3.7,12c-2.4,3-6.2,4.5-11.2,4.5c-4.8,0-8.5-1.5-11.1-4.5
				c-2.6-3-3.9-7-3.9-12v-38.7c0-1-0.1-1.9-0.4-2.7c-0.2-0.8-0.9-1.2-1.9-1.2c-0.9,0-1.5,0.4-1.9,1.2c-0.4,0.8-0.7,1.7-0.9,2.7
				l-5.5,36.3c-0.7,3.9-1.5,7.3-2.4,10.2c-0.9,2.8-2.3,5-4.2,6.5c-1.9,1.5-4.7,2.2-8.4,2.2c-3.6,0-6.3-0.7-8.3-2.2
				c-2-1.5-3.4-3.7-4.3-6.5c-0.9-2.8-1.7-6.2-2.2-10.2l-5.6-36.3c-0.1-1-0.3-1.9-0.7-2.7c-0.4-0.8-1.1-1.2-2-1.2
				c-1,0-1.6,0.4-1.9,1.2c-0.3,0.8-0.4,1.7-0.4,2.7v38.7c0,5-1.3,9-3.8,12C413.3,809.1,409.6,810.6,404.8,810.6z"/>
			<path class="st4" d="M515.1,825.1c0-2.4,0.8-4.3,2.4-5.7c1.6-1.4,4.2-2.1,7.6-2.1c2.7,0,5.1,0,7.3,0.1c2.2,0.1,3.6,0.1,4.2,0.1
				l-1.2-6.3c-0.5,0.3-1.5,0.7-3,1.2c-1.5,0.5-3.7,0.8-6.6,0.8c-4.7,0-8.8-1.4-12.3-4.2c-3.5-2.8-5.3-6.8-5.3-12s1.7-9.4,5-12.6
				c3.4-3.2,7.7-4.8,13-4.8c5.3,0,9.6,1.5,12.9,4.5c3.3,3,5,7.7,5,14.3c0,3.4-0.2,7.2-0.5,11.2c-0.3,4-1.1,7.8-2.4,11.4
				s-3.1,6.5-5.7,8.7c-2.5,2.3-6,3.4-10.4,3.4c-3.5,0-6-0.7-7.6-2.2C515.9,829.5,515.1,827.5,515.1,825.1z"/>
		</g>
		<g>
			<path class="st4" d="M78.3,947.7c-6.4-1-10.6-3.9-12.5-8.9s-1.5-11.2,1.2-18.8l19-54c1.7-5,3.7-9.3,6-12.8
				c2.3-3.6,5.1-6.3,8.5-8.2c3.4-1.9,7.7-2.9,12.7-2.9c7.7,0,13.5,2.1,17.4,6.3c3.9,4.2,7.1,10.1,9.7,17.6l18.9,54
				c2.7,7.6,3.2,13.8,1.5,18.8c-1.7,4.9-5.8,7.9-12.3,8.9c-5.3,0.7-9.9,0-13.8-1.9s-6.2-5-7-9.4c-0.6-2.9-0.7-5.3-0.2-7.2
				c0.4-1.9,0.8-3.5,1.2-4.6c0.3-1,0.3-1.9,0.1-2.8c-0.2-0.9-1-1.4-2.2-1.4H99.6c-1.2,0-2,0.5-2.2,1.4c-0.2,0.9-0.2,1.9,0.2,2.8
				c0.4,1.1,0.8,2.7,1.2,4.6c0.4,1.9,0.3,4.3-0.1,7.2c-0.8,4.3-3,7.4-6.8,9.4C88,947.7,83.5,948.4,78.3,947.7z M123.6,900.3
				l-7.5-23.5c-0.2-0.9-0.5-1.7-0.9-2.2c-0.4-0.5-1.1-0.8-2.1-0.8c-1,0-1.7,0.3-2.1,0.8c-0.4,0.5-0.8,1.3-1.1,2.2l-7.3,23.5H123.6z"
				/>
			<path class="st4" d="M212.5,948c-9.4,0-17.9-1.9-25.4-5.8c-7.5-3.9-13.5-9.7-17.8-17.4c-4.3-7.7-6.5-17.1-6.5-28.4
				c0-11.2,2.2-20.9,6.6-29.1c4.4-8.2,10.4-14.4,18-18.8c7.6-4.4,16.3-6.6,26.1-6.6c11.3,0,20,1.6,26.1,4.7c6,3.2,9.1,7.9,9.1,14.1
				c0,4.8-1.3,8.8-3.9,11.9c-2.6,3.1-6.1,4.7-10.7,4.7c-3.8,0-7.6-0.5-11.2-1.5c-3.6-1-7.8-1.5-12.6-1.5c-6.1,0-11,1.8-14.5,5.3
				c-3.6,3.6-5.3,8.2-5.3,14c0,5.7,1.8,10.4,5.3,14.2c3.6,3.8,8.4,5.7,14.5,5.7c3.3,0,6.3-0.3,9-0.8c2.7-0.5,5.4-1.1,8.1-1.7
				s5.5-0.9,8.6-0.9c5.1,0,8.8,1.7,11.2,5c2.4,3.3,3.6,7.4,3.6,12.3c0,4.9-1.8,8.9-5.3,11.9c-3.6,3-8.2,5.2-14,6.6
				C225.6,947.3,219.3,948,212.5,948z"/>
			<path class="st4" d="M271.3,874.8c-4.8,0-8.7-1.4-11.7-4.2c-3-2.8-4.5-6.6-4.5-11.5c0-4.8,1.4-8.7,4.1-11.6
				c2.7-2.9,6.8-4.4,12.2-4.4h62.1c5.4,0,9.4,1.5,12.2,4.4c2.7,2.9,4.1,6.8,4.1,11.6c0,4.9-1.5,8.7-4.5,11.5
				c-3,2.8-6.9,4.2-11.7,4.2c-3.3,0-5.9-0.4-7.9-1.1c-2-0.7-3.6-1.6-4.8-2.6c-1.2-1-2.4-1.9-3.6-2.6c-1.1-0.7-2.6-1.1-4.3-1.1
				l-1.3,2.6c0.4,0.9,1.1,2.1,2,3.7s1.9,3.8,2.7,6.8s1.3,6.9,1.3,11.9V934c0,3.9-1.5,7.2-4.4,9.8c-2.9,2.6-6.5,3.9-10.7,3.9
				c-4.3,0-7.9-1.3-10.9-3.9c-2.9-2.6-4.4-5.8-4.4-9.8v-41.6c0-5,0.4-8.9,1.3-11.9c0.9-2.9,1.8-5.2,2.8-6.8c1-1.6,1.7-2.8,2.1-3.7
				l-1.4-2.6c-1.7,0-3.2,0.4-4.3,1.1c-1.1,0.7-2.4,1.6-3.6,2.6c-1.2,1-2.8,1.9-4.8,2.6C277.3,874.5,274.6,874.8,271.3,874.8z"/>
			<path class="st4" d="M399.3,948.1c-5.8-0.1-11.3-0.9-16.5-2.3c-5.2-1.4-9.9-3.8-14-7.1c-4.1-3.3-7.4-7.6-9.7-13.1
				c-2.4-5.5-3.5-12.2-3.5-20.3v-48.8c0-4.6,1.5-8,4.5-10.3c3-2.3,6.6-3.4,10.6-3.4c3.9,0,7.4,1.1,10.5,3.4
				c3.1,2.3,4.6,5.7,4.6,10.3v42.1c0,6.8,1.6,11.8,4.8,15c3.2,3.2,7.4,4.6,12.5,4.3c5.4-0.4,9.2-2.4,11.6-6.2c2.4-3.7,3-8.7,1.9-15
				c-0.7-4.2-1.4-7.8-2.2-10.7c-0.8-2.9-1.6-5.5-2.4-7.7c-0.8-2.3-1.5-4.5-2.1-6.8c-0.6-2.3-1-4.9-1.3-8c-0.6-6.4,0.7-11.5,4-15.2
				c3.2-3.7,7.5-5.5,12.7-5.5c5.3,0,9.4,1.8,12.4,5.3c3,3.6,4.5,8.9,4.5,16.1v41.1c0,8.1-1.1,14.9-3.4,20.4
				c-2.3,5.5-5.4,9.9-9.4,13.3c-4,3.3-8.6,5.7-13.7,7.1C410.5,947.4,405.1,948.1,399.3,948.1z"/>
			<path class="st4" d="M458.5,947.7c-6.4-1-10.6-3.9-12.5-8.9c-1.9-4.9-1.5-11.2,1.2-18.8l19-54c1.7-5,3.7-9.3,6-12.8
				c2.3-3.6,5.1-6.3,8.5-8.2c3.4-1.9,7.7-2.9,12.7-2.9c7.7,0,13.5,2.1,17.4,6.3c3.9,4.2,7.1,10.1,9.7,17.6l18.9,54
				c2.7,7.6,3.2,13.8,1.5,18.8s-5.8,7.9-12.3,8.9c-5.3,0.7-9.9,0-13.8-1.9c-3.9-1.9-6.2-5-7-9.4c-0.6-2.9-0.7-5.3-0.2-7.2
				c0.4-1.9,0.8-3.5,1.2-4.6c0.3-1,0.3-1.9,0.1-2.8c-0.2-0.9-1-1.4-2.2-1.4h-26.8c-1.2,0-2,0.5-2.2,1.4c-0.2,0.9-0.2,1.9,0.2,2.8
				c0.4,1.1,0.8,2.7,1.2,4.6c0.4,1.9,0.3,4.3-0.1,7.2c-0.8,4.3-3,7.4-6.8,9.4S463.8,948.4,458.5,947.7z M503.9,900.3l-7.5-23.5
				c-0.2-0.9-0.5-1.7-0.9-2.2c-0.4-0.5-1.1-0.8-2.1-0.8c-1,0-1.7,0.3-2.1,0.8c-0.4,0.5-0.8,1.3-1.1,2.2l-7.3,23.5H503.9z"/>
			<path class="st4" d="M549,856.8c0-4.4,1.4-7.8,4.1-10.3s6.3-3.7,10.6-3.7c4.5,0,8.1,1.2,10.8,3.7c2.7,2.4,4,5.9,4,10.3v61.4
				c0,1.8,0.5,3.1,1.4,3.8c1,0.7,2.5,0.5,4.8-0.8c4.8-2.8,9.1-5,12.8-6.7c3.7-1.7,7.9-2.5,12.4-2.5c6.2,0,10.9,1.6,14.1,4.9
				c3.2,3.3,4.8,7.5,4.8,12.8c0,5.7-1.7,10-5.1,13.1c-3.4,3.1-8.9,4.6-16.3,4.6h-29.7c-6.3,0-11.6-0.7-15.8-2.2
				c-4.2-1.5-7.4-4.2-9.6-8.1c-2.2-3.9-3.2-9.7-3.2-17.1V856.8z"/>
			<path class="st4" d="M634.7,856.8c0-4.4,1.4-7.8,4.1-10.3s6.3-3.7,10.6-3.7c4.5,0,8.1,1.2,10.8,3.7c2.7,2.4,4,5.9,4,10.3v61.4
				c0,1.8,0.5,3.1,1.4,3.8c1,0.7,2.5,0.5,4.8-0.8c4.8-2.8,9.1-5,12.8-6.7c3.7-1.7,7.9-2.5,12.4-2.5c6.2,0,10.9,1.6,14.1,4.9
				c3.2,3.3,4.8,7.5,4.8,12.8c0,5.7-1.7,10-5.1,13.1c-3.4,3.1-8.9,4.6-16.3,4.6h-29.7c-6.3,0-11.6-0.7-15.8-2.2
				c-4.2-1.5-7.4-4.2-9.6-8.1c-2.2-3.9-3.2-9.7-3.2-17.1V856.8z"/>
			<path class="st4" d="M693,870.6c-2.8-6-3.4-11.3-1.9-16.1c1.5-4.8,4.5-8.1,8.8-10c4.4-1.9,8.9-1.9,13.5-0.1
				c4.6,1.9,7.9,5.8,10,11.7c1.1,3,1.8,6.4,2.3,10.3c0.5,3.9,1,7.6,1.7,11.2c0.6,3.6,1.7,6.6,3.2,8.9c1.5,2.4,3.8,3.5,7,3.5
				c3.2,0,5.5-1.2,7.1-3.5c1.5-2.4,2.6-5.3,3.2-8.9c0.6-3.6,1.1-7.3,1.6-11.2c0.4-3.9,1.2-7.3,2.2-10.3c2.2-6,5.6-9.9,10.1-11.7
				c4.5-1.9,9-1.9,13.4,0.1c4.3,1.9,7.3,5.3,8.8,10c1.5,4.7,0.9,10.1-1.9,16.1c-1.4,3.1-3.3,6-5.7,8.7c-2.4,2.7-4.9,5.5-7.7,8.4
				c-2.8,2.9-5.6,6.1-8.4,9.6c-2.8,3.5-5.3,7.5-7.6,12V934c0,3.9-1.4,7.2-4.3,9.8c-2.9,2.6-6.5,3.9-10.8,3.9
				c-4.2,0-7.8-1.3-10.7-3.9c-2.9-2.6-4.4-5.8-4.4-9.8v-24.6c-2.2-4.5-4.7-8.5-7.5-12c-2.8-3.5-5.6-6.7-8.4-9.6
				c-2.8-2.9-5.4-5.7-7.8-8.4C696.4,876.6,694.5,873.7,693,870.6z"/>
		</g>
		<g>
			<path class="st4" d="M804.1,942.6c-5.7,0-10.1-1.5-13.3-4.5c-3.2-3-4.8-7-4.8-12c0-5.1,1.6-9.2,4.9-12.4
				c3.3-3.2,7.6-4.7,13.1-4.7c5.4,0,9.7,1.6,12.9,4.7c3.2,3.1,4.8,7.2,4.8,12.3c0,5-1.5,9-4.6,12.1
				C814.2,941.1,809.8,942.6,804.1,942.6z M839.3,926.1c0-5.1,1.6-9.2,4.9-12.4c3.3-3.2,7.6-4.7,13.1-4.7c5.4,0,9.7,1.6,12.9,4.7
				c3.2,3.1,4.8,7.2,4.8,12.3c0,5-1.5,9-4.6,12.1c-3.1,3.1-7.4,4.6-13.1,4.6c-5.7,0-10.1-1.5-13.3-4.5
				C840.8,935.1,839.3,931,839.3,926.1z M892.4,926.1c0-5.1,1.6-9.2,4.9-12.4c3.3-3.2,7.6-4.7,13.1-4.7c5.4,0,9.7,1.6,12.9,4.7
				c3.2,3.1,4.8,7.2,4.8,12.3c0,5-1.5,9-4.6,12.1c-3.1,3.1-7.4,4.6-13.1,4.6c-5.7,0-10.1-1.5-13.3-4.5
				C894,935.1,892.4,931,892.4,926.1z"/>
		</g>
	</g>
	<g>
		<path class="st0" d="M568.4,769.7c7.3,29.3,34,48.4,62.2,44.6c31.4-3.8,55.4-30.6,51.2-65.3l0.1,0.9l-6.8-38.5
			c-1.5-7.5-8.2-12.6-15.4-11.6l-32.5,3.9c-20.8-8.8-62.4,30.6-61.6,37.2"/>
		<path class="st0" d="M578.7,755.9c-6.6,0.3-14.5-4-15-11.2l-6-51.1c-1.6-6.6,9.9-14.6,15.9-16.2c6.1-1.6,9.8,9.3,11.4,15.9
			c1.3-18,0.5-3.3,0.2,23.2l2.9,24.2C589.5,747.8,585.2,754.5,578.7,755.9z"/>
		<path class="st0" d="M607.8,769.1c-6.6,0.3-12.4-5.3-12.8-12.5l-8.3-68.3c-3.1-6-18.8-2,8.7-12.6c5.9-2.3,10.6,1.2,12.3,7.8
			c0.3,1.1,3.5,17.5,3.5,18.5l6.2,51.8C618.6,761,614.4,767.7,607.8,769.1z"/>
		<path class="st0" d="M609.2,715.3l-3-25.2c-0.9-6.6,5.5-18.5,12.3-20.2c6.9-1.7,24.6,3,26.3,9.5c0.3,1.1,0.5,3.9,0.5,5l-4.6,21"/>
		<path class="st0" d="M641.3,710.4l-10.9-101c-2.6-21.3,30.3-22.5,32.6-2.9l16.5,106.5"/>
		<path class="st5" d="M577.8,729.5c-7.2,0.3-13.3-5.2-13.7-12.4l-2.9-24.2c-1.7-6.6,2.3-13.3,8.8-15c6.6-1.7,13.3,2.3,15,8.8
			c0.3,1.1,0.4,2.1,0.4,3.2l2.9,24.2C589.5,721.3,584.8,728.1,577.8,729.5z"/>
		<path class="st6" d="M682.1,752.5l-4.3-35.7c-1.5-7.6-8-14.9-18.5-13.7"/>
		<path class="st6" d="M659.3,703.2l-28.6,3.4c-6,0.3-10.4,6.2-10,13.3c1.4,7.1,6.9,12.2,13,12l3.1,0c6.4,0.1,11.9,3.2,12.4,6.9
			l0.8,6.8l0.2,1.5c-6,2.3-11.3,6.4-15.3,12"/>
		<path class="st6" d="M570.6,772.9c7.2,28.8,33.4,47.6,61.2,43.8c30.9-3.7,54.5-30.1,50.4-64.2l0,0"/>
		<line class="st6" x1="633.3" y1="608.8" x2="639.5" y2="660.6"/>
		<line class="st6" x1="662.3" y1="606.1" x2="672.6" y2="691.8"/>
		<path class="st6" d="M633.3,608.8c-2.4-20.3,26.8-21.4,29-2.8"/>
		<path class="st5" d="M606.9,725.5c-11,5.6-18.1-4.6-18.5-11.8l-2.9-24.2c-1.7-6.6,2.3-13.3,8.8-15c6.6-1.7,13.3,2.3,15,8.8
			c0.3,1.1,0.4,2.1,0.4,3.2"/>
		<path class="st5" d="M611.7,701.6l-2.2-18.4c-1.7-6.6,2.3-13.3,8.8-15c6.6-1.7,13.3,2.3,15,8.8c0.3,1.1,0.4,2.1,0.4,3.2l1.6,12.1"
			/>
		<path class="st6" d="M570.6,772.9c-0.9-5.2-3.7-30.9-3.7-30.9"/>
	</g>
</g>
</svg>
